<svg xmlns="http://www.w3.org/2000/svg" xmlns:xlink="http://www.w3.org/1999/xlink" width="400" zoomAndPan="magnify" viewBox="0 0 300 30.000001" height="40" preserveAspectRatio="xMidYMid meet" version="1.0"><defs><clipPath id="08399722ce"><path d="M 4.839844 13 L 295.160156 13 L 295.160156 16 L 4.839844 16 Z M 4.839844 13 " clip-rule="nonzero"/></clipPath><clipPath id="c79b83b830"><path d="M 119 4.355469 L 181 4.355469 L 181 24.675781 L 119 24.675781 Z M 119 4.355469 " clip-rule="nonzero"/></clipPath></defs><g clip-path="url(#08399722ce)"><path fill="#ff7a00" d="M 55.65625 14.515625 L 55.65625 14.9375 C 51.390625 15.175781 47.125 15.027344 42.863281 14.988281 L 30.078125 14.761719 L 5.289062 14.515625 L 30.078125 14.273438 L 42.863281 14.042969 C 47.125 14.007812 51.390625 13.859375 55.65625 14.097656 Z M 244.34375 14.515625 L 244.34375 14.097656 C 248.609375 13.859375 252.875 14.007812 257.140625 14.042969 L 269.921875 14.273438 L 294.710938 14.515625 L 269.921875 14.761719 L 257.140625 14.988281 C 252.875 15.027344 248.609375 15.175781 244.34375 14.9375 Z M 55.667969 14.515625 L 55.667969 14.9375 C 51.402344 15.230469 47.140625 15.132812 42.875 15.144531 L 30.066406 15.074219 L 4.839844 14.515625 L 30.066406 13.957031 L 42.875 13.886719 C 47.140625 13.902344 51.402344 13.804688 55.667969 14.097656 Z M 244.332031 14.515625 L 244.332031 14.097656 C 248.597656 13.804688 252.863281 13.902344 257.125 13.886719 L 269.933594 13.957031 L 295.160156 14.515625 L 269.933594 15.074219 L 257.125 15.144531 C 252.863281 15.132812 248.597656 15.230469 244.332031 14.9375 L 244.332031 14.515625 " fill-opacity="1" fill-rule="nonzero"/></g><path fill="#ff7a00" d="M 223.582031 14.515625 L 223.582031 13.925781 C 221.636719 13.777344 219.660156 13.671875 217.589844 13.453125 C 215.441406 13.238281 213.199219 12.972656 210.886719 12.539062 C 209.691406 12.347656 208.460938 12.113281 207.234375 11.847656 C 205.992188 11.578125 204.769531 11.175781 203.519531 10.738281 C 202.25 10.28125 200.988281 9.722656 199.808594 9.03125 C 199.203125 8.691406 198.613281 8.316406 198.09375 7.886719 C 197.589844 7.449219 197.085938 6.953125 197.035156 6.386719 L 196.796875 6.347656 C 196.65625 7.023438 197.109375 7.675781 197.5625 8.207031 C 198.03125 8.75 198.578125 9.230469 199.160156 9.671875 C 200.316406 10.535156 201.578125 11.242188 202.863281 11.855469 C 205.378906 13.0625 208.0625 13.652344 210.515625 14.183594 C 211.175781 14.300781 211.828125 14.414062 212.476562 14.515625 C 211.828125 14.621094 211.175781 14.730469 210.515625 14.851562 C 208.0625 15.382812 205.378906 15.972656 202.863281 17.179688 C 201.578125 17.792969 200.316406 18.5 199.160156 19.359375 C 198.578125 19.804688 198.03125 20.285156 197.5625 20.824219 C 197.109375 21.359375 196.65625 22.011719 196.796875 22.683594 L 197.035156 22.648438 C 197.085938 22.082031 197.589844 21.582031 198.09375 21.148438 C 198.613281 20.714844 199.203125 20.339844 199.808594 20 C 200.988281 19.3125 202.25 18.753906 203.519531 18.292969 C 204.769531 17.859375 205.992188 17.457031 207.234375 17.1875 C 208.460938 16.921875 209.691406 16.683594 210.886719 16.492188 C 213.199219 16.058594 215.441406 15.796875 217.589844 15.582031 C 219.660156 15.359375 221.636719 15.253906 223.582031 15.109375 L 223.582031 14.515625 " fill-opacity="1" fill-rule="nonzero"/><path fill="#ff7a00" d="M 76.417969 14.515625 L 76.417969 15.109375 C 78.363281 15.253906 80.339844 15.359375 82.410156 15.582031 C 84.5625 15.796875 86.804688 16.058594 89.113281 16.492188 C 90.308594 16.683594 91.539062 16.921875 92.765625 17.1875 C 94.011719 17.457031 95.230469 17.859375 96.480469 18.292969 C 97.75 18.753906 99.011719 19.3125 100.191406 20 C 100.800781 20.339844 101.390625 20.714844 101.90625 21.148438 C 102.410156 21.582031 102.914062 22.082031 102.964844 22.648438 L 103.207031 22.683594 C 103.34375 22.011719 102.890625 21.359375 102.4375 20.824219 C 101.96875 20.285156 101.417969 19.804688 100.84375 19.359375 C 99.683594 18.5 98.421875 17.792969 97.136719 17.179688 C 94.621094 15.972656 91.9375 15.382812 89.484375 14.851562 C 88.824219 14.730469 88.167969 14.621094 87.523438 14.515625 C 88.167969 14.414062 88.824219 14.300781 89.484375 14.183594 C 91.9375 13.652344 94.621094 13.0625 97.136719 11.855469 C 98.421875 11.242188 99.683594 10.535156 100.84375 9.671875 C 101.417969 9.230469 101.96875 8.75 102.4375 8.207031 C 102.890625 7.675781 103.34375 7.023438 103.207031 6.347656 L 102.964844 6.386719 C 102.914062 6.953125 102.410156 7.449219 101.90625 7.886719 C 101.390625 8.316406 100.800781 8.691406 100.191406 9.03125 C 99.011719 9.722656 97.75 10.28125 96.480469 10.738281 C 95.230469 11.175781 94.011719 11.578125 92.765625 11.847656 C 91.539062 12.113281 90.308594 12.347656 89.113281 12.539062 C 86.804688 12.972656 84.5625 13.238281 82.410156 13.453125 C 80.339844 13.671875 78.363281 13.777344 76.417969 13.925781 L 76.417969 14.515625 " fill-opacity="1" fill-rule="nonzero"/><g clip-path="url(#c79b83b830)"><path fill="#ff7a00" d="M 128.804688 14.515625 C 140.671875 17.289062 148.054688 21.273438 150 22.40625 C 151.945312 21.273438 159.328125 17.289062 171.195312 14.515625 C 159.328125 11.742188 151.945312 7.757812 150 6.625 C 148.054688 7.757812 140.671875 11.742188 128.804688 14.515625 Z M 150 24.625 L 149.496094 24.308594 C 149.402344 24.253906 140.027344 18.453125 124.039062 15.445312 L 119.09375 14.515625 L 124.039062 13.589844 C 140.027344 10.582031 149.402344 4.78125 149.496094 4.722656 L 150 4.40625 L 150.503906 4.722656 C 150.59375 4.78125 159.972656 10.582031 175.957031 13.589844 L 180.90625 14.515625 L 175.957031 15.445312 C 159.972656 18.453125 150.59375 24.253906 150.503906 24.308594 L 150 24.625 " fill-opacity="1" fill-rule="nonzero"/></g><path fill="#ff7a00" d="M 150 11.441406 C 150 11.441406 153.21875 13.464844 158.820312 14.515625 C 153.21875 15.570312 150 17.59375 150 17.59375 C 150 17.59375 146.78125 15.570312 141.179688 14.515625 C 146.78125 13.464844 150 11.441406 150 11.441406 " fill-opacity="1" fill-rule="nonzero"/><path fill="#ff7a00" d="M 229.175781 14.515625 C 232.855469 13.695312 234.953125 12.375 234.953125 12.375 C 234.953125 12.375 237.042969 13.695312 240.730469 14.515625 C 237.042969 15.339844 234.953125 16.65625 234.953125 16.65625 C 234.953125 16.65625 232.855469 15.339844 229.175781 14.515625 " fill-opacity="1" fill-rule="nonzero"/><path fill="#ff7a00" d="M 70.828125 14.515625 C 67.140625 15.339844 65.046875 16.65625 65.046875 16.65625 C 65.046875 16.65625 62.957031 15.339844 59.269531 14.515625 C 62.957031 13.695312 65.046875 12.375 65.046875 12.375 C 65.046875 12.375 67.140625 13.695312 70.828125 14.515625 " fill-opacity="1" fill-rule="nonzero"/><path fill="#ff7a00" d="M 167.113281 14.515625 C 174.914062 16.546875 179.859375 19.160156 181.394531 20.042969 C 182.929688 19.160156 187.871094 16.546875 195.671875 14.515625 C 187.871094 12.484375 182.929688 9.871094 181.394531 8.992188 C 179.859375 9.871094 174.914062 12.484375 167.113281 14.515625 Z M 181.394531 22.261719 L 180.890625 21.945312 C 180.824219 21.90625 174.160156 17.78125 162.738281 15.445312 L 158.210938 14.515625 L 162.738281 13.589844 C 174.191406 11.246094 180.824219 7.132812 180.890625 7.089844 L 181.394531 6.773438 L 181.894531 7.089844 C 181.964844 7.132812 188.628906 11.25 200.046875 13.589844 L 204.578125 14.515625 L 200.046875 15.445312 C 188.628906 17.78125 181.964844 21.90625 181.894531 21.945312 L 181.394531 22.261719 " fill-opacity="1" fill-rule="nonzero"/><path fill="#ff7a00" d="M 104.328125 14.515625 C 112.128906 16.546875 117.070312 19.160156 118.605469 20.042969 C 120.140625 19.160156 125.085938 16.546875 132.886719 14.515625 C 125.085938 12.484375 120.140625 9.871094 118.605469 8.992188 C 117.070312 9.871094 112.128906 12.484375 104.328125 14.515625 Z M 118.605469 22.261719 L 118.105469 21.945312 C 118.035156 21.90625 111.375 17.78125 99.953125 15.445312 L 95.421875 14.515625 L 99.953125 13.589844 C 111.375 11.25 118.035156 7.132812 118.105469 7.089844 L 118.605469 6.777344 L 119.109375 7.089844 C 119.175781 7.132812 125.84375 11.25 137.257812 13.589844 L 141.789062 14.515625 L 137.257812 15.445312 C 125.808594 17.785156 119.175781 21.90625 119.109375 21.945312 L 118.605469 22.261719 " fill-opacity="1" fill-rule="nonzero"/></svg>